<mxfile host="app.diagrams.net" modified="2024-03-26T09:48:27.653Z" agent="Mozilla/5.0 (Windows NT 10.0; Win64; x64) AppleWebKit/537.36 (KHTML, like Gecko) Chrome/123.0.0.0 Safari/537.36" etag="jWwgV-OYhzPMDUVBmOMe" version="24.0.7" type="device">
  <diagram name="Sida-1" id="pKIPQ5gU2DI8JWs60w3k">
    <mxGraphModel dx="1050" dy="565" grid="1" gridSize="10" guides="1" tooltips="1" connect="1" arrows="1" fold="1" page="1" pageScale="1" pageWidth="827" pageHeight="1169" math="0" shadow="0">
      <root>
        <mxCell id="0" />
        <mxCell id="1" parent="0" />
        <mxCell id="Hiv99qzcjI_scUMiQj4p-1" value="PlayerInteract+&lt;div&gt;&lt;br&gt;&lt;/div&gt;&lt;div&gt;Trigger Interact+&lt;/div&gt;" style="rounded=0;whiteSpace=wrap;html=1;" vertex="1" parent="1">
          <mxGeometry x="120" y="80" width="120" height="60" as="geometry" />
        </mxCell>
        <mxCell id="Hiv99qzcjI_scUMiQj4p-5" style="edgeStyle=orthogonalEdgeStyle;rounded=0;orthogonalLoop=1;jettySize=auto;html=1;entryX=0.5;entryY=0;entryDx=0;entryDy=0;" edge="1" parent="1" source="Hiv99qzcjI_scUMiQj4p-2" target="Hiv99qzcjI_scUMiQj4p-3">
          <mxGeometry relative="1" as="geometry" />
        </mxCell>
        <mxCell id="Hiv99qzcjI_scUMiQj4p-6" style="edgeStyle=orthogonalEdgeStyle;rounded=0;orthogonalLoop=1;jettySize=auto;html=1;entryX=0.5;entryY=0;entryDx=0;entryDy=0;" edge="1" parent="1" source="Hiv99qzcjI_scUMiQj4p-2" target="Hiv99qzcjI_scUMiQj4p-4">
          <mxGeometry relative="1" as="geometry" />
        </mxCell>
        <mxCell id="Hiv99qzcjI_scUMiQj4p-2" value="Interactable+&lt;div&gt;&lt;br&gt;&lt;/div&gt;&lt;div&gt;BaseInteract()+&lt;/div&gt;" style="rounded=0;whiteSpace=wrap;html=1;" vertex="1" parent="1">
          <mxGeometry x="480" y="80" width="120" height="60" as="geometry" />
        </mxCell>
        <mxCell id="Hiv99qzcjI_scUMiQj4p-3" value="Item&lt;div&gt;&lt;br&gt;&lt;/div&gt;&lt;div&gt;Pickup&lt;/div&gt;" style="rounded=0;whiteSpace=wrap;html=1;" vertex="1" parent="1">
          <mxGeometry x="400" y="200" width="120" height="60" as="geometry" />
        </mxCell>
        <mxCell id="Hiv99qzcjI_scUMiQj4p-8" style="edgeStyle=orthogonalEdgeStyle;rounded=0;orthogonalLoop=1;jettySize=auto;html=1;entryX=0.5;entryY=0;entryDx=0;entryDy=0;" edge="1" parent="1" source="Hiv99qzcjI_scUMiQj4p-4" target="Hiv99qzcjI_scUMiQj4p-7">
          <mxGeometry relative="1" as="geometry" />
        </mxCell>
        <mxCell id="Hiv99qzcjI_scUMiQj4p-4" value="Structure" style="rounded=0;whiteSpace=wrap;html=1;" vertex="1" parent="1">
          <mxGeometry x="560" y="200" width="120" height="60" as="geometry" />
        </mxCell>
        <mxCell id="Hiv99qzcjI_scUMiQj4p-7" value="Door&lt;div&gt;&lt;br&gt;&lt;/div&gt;&lt;div&gt;Open/Close&lt;/div&gt;" style="rounded=0;whiteSpace=wrap;html=1;" vertex="1" parent="1">
          <mxGeometry x="600" y="320" width="120" height="60" as="geometry" />
        </mxCell>
      </root>
    </mxGraphModel>
  </diagram>
</mxfile>
